/* XPM */
static char *a0b408d0cb4a43c5dd75d9c693bca714TIsTWk0XVz3gXC37[] = {
/* columns rows colors chars-per-pixel */
"32 32 7 1 ",
"  c None",
". c #2F2F2E",
"X c #4F4F4E",
"o c #9D5021",
"O c #D67941",
"+ c gray72",
"@ c white",
/* pixels */
"                                ",
"                                ",
"                                ",
"                                ",
"                                ",
"                                ",
"                                ",
"                                ",
"                                ",
"                                ",
"                    ..          ",
"               ... .oO.         ",
"               .oO. .@O.        ",
"                .....@O.        ",
"          .......ooooOO.        ",
"         .ooOOO.ooo..OO.        ",
"        ...ooO...ooOOOOO.       ",
"       .oOO....+++@@@@@@.       ",
"       .oOO@@@........@.        ",
"       .oOO+@@@.OX.XOO.         ",
"        ...............         ",
"                                ",
"                                ",
"                                ",
"                                ",
"                                ",
"                                ",
"                                ",
"                                ",
"                                ",
"                                ",
"                                "
};
